<svg xmlns="http://www.w3.org/2000/svg" version="1.1" xmlns:xlink="http://www.w3.org/1999/xlink"
     xmlns:svgjs="http://svgjs.dev/svgjs" viewBox="0 0 800 800">
    <defs>
        <linearGradient x1="50%" y1="0%" x2="50%" y2="100%" id="ccchaos-grad">
            <stop stop-color="hsl(206, 75%, 49%)" stop-opacity="1" offset="0%"></stop>
            <stop stop-color="hsl(331, 90%, 56%)" stop-opacity="1" offset="100%"></stop>
        </linearGradient>
    </defs>
    <g stroke-width="2" stroke="url(#ccchaos-grad)" fill="none" stroke-linecap="round">
        <path
                d="M378.13 128.17C387.49 127.2 396.78 125.78 405.99 124.06 415.2 121.72 424.35 119.52 433.42 117.7 442.53 115.98 451.58 115.1 460.58 115.22 469.65 116.03 478.7 118.08 487.74 121.38 496.88 125.53 506.05 130.86 515.25 137.23 524.6 144.22 534 151.99 543.46 160.34 553.09 168.89 562.78 177.72 572.51 186.67 582.39 195.41 592.29 204.08 602.14 212.6 612.07 220.69 621.88 228.56 631.49 236.23 641.03 243.43 650.25 250.48 659.02 257.43 667.53 264 675.43 270.59 682.6 277.26 689.29 283.67 695.09 290.28 699.87 297.12 704 303.82 707 310.85 708.8 318.22 709.87 325.53 709.73 333.23 708.38 341.33 706.39 349.4 703.3 357.89 699.18 366.82 694.7 375.73 689.43 385.08 683.5 394.87 677.64 404.67 671.55 414.7 665.41 424.94 659.73 435.21 654.22 445.71 648.97 456.42 644.43 467.16 640.23 478.13 636.4 489.28 633.32 500.45 630.57 511.78 628.11 523.17 626.28 534.49 624.61 545.78 623 556.9 621.83 567.77 620.56 578.26 619.11 588.2 617.86 597.59 616.26 606.16 614.26 613.71 611.02 623.17 601.61 634.05 595.3 635.35 590.7 635.13 585.48 633.9 579.66 631.91 573.66 630.08 567.08 628.15 559.98 626.54 552.72 626.13 544.98 626.75 536.8 628.71 528.51 632.63 519.83 638.19 510.82 645.37 501.74 654.3 492.36 664.34 482.73 675.03 473.07 686.09 463.18 696.62 453.1 705.91 443.02 713.69 432.77 719.04 422.37 721.48 411.97 721.27 401.67 717.96 391.5 711.87 381.33 703.87 371.28 694.08 361.37 683.21 351.45 672.17 341.66 661.27 332.01 651.08 322.35 642.29 312.82 634.92 303.44 629.11 294.04 625.25 284.79 622.88 275.7 621.76 266.6 622.12 257.66 623.12 248.92 624.39 240.18 626.15 231.64 627.5 223.34 628.13 215.06 628.39 207.04 627.5 199.32 625.37 191.65 622.42 184.3 618.14 177.31 612.6 170.42 606.23 163.92 598.75 157.84 590.34 151.9 581.33 146.41 571.61 141.41 561.39 136.57 550.83 132.22 539.97 128.42 528.96 124.78 517.82 121.67 506.65 119.13 495.56 116.73 484.45 114.89 473.46 113.62 462.67 112.47 451.89 111.87 441.31 111.83 430.96 111.86 420.62 112.42 410.5 113.52 400.62 114.64 390.74 116.23 381.31 118.26 372.33 120.24 363.33 122.63 354.75 125.39 346.59 128.04 338.38 131.04 330.55 134.35 323.08 137.52 315.51 140.99 308.25 144.73 301.26 148.31 294.09 152.17 287.09 156.27 280.23 160.22 273.07 164.43 265.93 168.88 258.75 173.2 251.18 177.79 243.47 182.64 235.6 187.38 227.29 192.41 218.79 197.73 210.13 202.97 201.13 208.51 192.07 214.36 183.04 220.17 173.96 226.3 165.15 232.73 156.78 239.16 148.75 245.9 141.46 252.95 135.08 260 129.42 267.35 124.87 274.99 121.56 282.64 119.06 290.56 117.77 298.74 117.62 306.93 117.99 315.36 119.19 324 121.04 332.65 122.76 341.5 124.64 350.53 126.46 359.56 127.49 368.77 128.09 378.12 128.18"
                stroke-dasharray="1 3" transform="rotate(0, 400, 400)" opacity="0.88"></path>
        <path
                d="M379.39 139.58C388.41 138.64 397.4 137.27 406.34 135.62 415.29 133.34 424.21 131.18 433.08 129.33 441.98 127.52 450.86 126.47 459.72 126.32 468.63 126.76 477.56 128.36 486.48 131.13 495.5 134.69 504.56 139.41 513.65 145.17 522.86 151.57 532.12 158.8 541.43 166.69 550.86 174.86 560.33 183.42 569.81 192.2 579.39 200.91 588.95 209.63 598.42 218.29 607.92 226.63 617.26 234.81 626.36 242.82 635.35 250.42 643.98 257.87 652.15 265.2 660.03 272.16 667.31 279.09 673.86 286.04 679.94 292.71 685.17 299.5 689.43 306.46 693.08 313.25 695.68 320.29 697.17 327.61 697.99 334.84 697.7 342.41 696.29 350.34 694.32 358.22 691.33 366.5 687.39 375.19 683.14 383.85 678.15 392.94 672.54 402.47 666.99 412 661.2 421.75 655.34 431.71 649.89 441.69 644.55 451.87 639.42 462.23 634.91 472.61 630.7 483.15 626.79 493.79 623.57 504.42 620.63 515.09 617.94 525.72 615.85 536.22 613.9 546.55 612.03 556.59 610.58 566.3 609.07 575.52 607.41 584.08 605.98 592.09 604.26 599.21 602.21 605.3 594.5 616.54 577.46 619.62 569.67 617.28 564.14 615.94 558.06 614.72 551.48 613.98 544.77 614.49 537.58 616.06 529.96 618.93 522.24 623.59 514.12 629.72 505.65 637.24 497.13 646.24 488.29 656.13 479.17 666.46 470.02 677 460.63 686.92 451.02 695.59 441.41 702.83 431.59 707.8 421.61 710.07 411.63 709.92 401.72 706.9 391.9 701.31 382.09 693.91 372.37 684.79 362.77 674.54 353.17 664.01 343.67 653.45 334.3 643.38 324.92 634.44 315.66 626.67 306.54 620.26 297.41 615.58 288.42 612.29 279.59 610.22 270.75 609.59 262.08 609.72 253.61 610.29 245.14 611.53 236.87 612.6 228.85 613.22 220.85 613.73 213.12 613.36 205.67 611.97 198.29 609.99 191.23 606.84 184.52 602.55 177.92 597.55 171.69 591.47 165.88 584.45 160.21 576.84 154.97 568.47 150.22 559.49 145.61 550.13 141.49 540.36 137.89 530.31 134.45 520.07 131.53 509.7 129.15 499.29 126.92 488.82 125.22 478.38 124.08 468.06 123.05 457.73 122.55 447.54 122.59 437.53 122.71 427.54 123.34 417.72 124.49 408.11 125.65 398.5 127.27 389.31 129.31 380.54 131.3 371.74 133.68 363.32 136.41 355.27 139.04 347.17 142 339.39 145.26 331.91 148.39 324.31 151.8 316.95 155.46 309.78 158.98 302.43 162.75 295.18 166.76 287.99 170.62 280.51 174.72 273.01 179.06 265.43 183.26 257.5 187.72 249.43 192.42 241.22 197.01 232.65 201.87 223.94 206.99 215.15 212.03 206.14 217.36 197.16 222.97 188.32 228.53 179.55 234.39 171.14 240.53 163.27 246.66 155.81 253.08 149.14 259.8 143.41 266.5 138.4 273.5 134.48 280.77 131.73 288.04 129.73 295.58 128.84 303.37 128.99 311.16 129.57 319.2 130.89 327.45 132.76 335.71 134.46 344.18 136.28 352.84 138.01 361.5 138.97 370.36 139.52 379.38 139.59"
                stroke-dasharray="10 10" transform="rotate(4.04, 400, 400)" opacity="0.41"></path>
        <path
                d="M381.27 150.99C389.98 150.08 398.68 148.77 407.35 147.18 416.04 144.98 424.71 142.86 433.37 141.01 442.06 139.14 450.75 137.94 459.43 137.55 468.18 137.66 476.94 138.83 485.71 141.09 494.57 144.09 503.47 148.2 512.39 153.32 521.41 159.1 530.48 165.73 539.56 173.07 548.74 180.78 557.93 188.95 567.1 197.45 576.33 205.98 585.5 214.63 594.54 223.3 603.57 231.76 612.41 240.14 620.96 248.39 629.38 256.31 637.42 264.1 644.98 271.77 652.24 279.11 658.91 286.39 664.86 293.64 670.37 300.62 675.05 307.66 678.82 314.8 682.04 321.77 684.27 328.91 685.46 336.27 686.07 343.52 685.65 351.05 684.2 358.89 682.25 366.66 679.37 374.79 675.62 383.27 671.6 391.74 666.88 400.59 661.58 409.84 656.33 419.09 650.84 428.53 645.26 438.13 640.03 447.74 634.88 457.51 629.88 467.4 625.44 477.28 621.22 487.24 617.27 497.23 613.93 507.15 610.83 517.02 607.96 526.74 605.63 536.27 603.43 545.54 601.31 554.39 599.6 562.89 597.85 570.81 595.99 578.02 593.44 587.58 587.1 600.92 583.02 604.43 578.44 606.09 566.67 604.86 559.43 603.08 554.31 602.35 548.68 601.92 542.57 602.07 536.36 603.49 529.68 605.95 522.57 609.63 515.38 614.92 507.8 621.51 499.86 629.27 491.87 638.26 483.55 647.93 474.94 657.85 466.3 667.84 457.39 677.15 448.26 685.23 439.11 691.95 429.75 696.55 420.2 698.66 410.64 698.57 401.13 695.83 391.7 690.7 382.26 683.89 372.89 675.42 363.62 665.81 354.35 655.82 345.17 645.65 336.1 635.78 327.03 626.79 318.07 618.75 309.24 611.85 300.4 606.48 291.7 602.35 283.16 599.38 274.62 597.8 266.24 597.03 258.05 596.82 249.88 597.39 241.91 598.01 234.18 598.41 226.5 598.91 219.06 598.78 211.92 597.87 204.85 596.58 198.08 594.31 191.67 591.04 185.37 587.2 179.43 582.36 173.9 576.61 168.5 570.33 163.54 563.25 159.03 555.51 154.67 547.4 150.78 538.78 147.39 529.78 144.16 520.56 141.42 511.09 139.21 501.48 137.14 491.78 135.59 482.02 134.57 472.28 133.65 462.52 133.26 452.82 133.38 443.22 133.57 433.63 134.26 424.16 135.45 414.85 136.65 405.53 138.29 396.58 140.33 387.97 142.32 379.35 144.69 371.05 147.39 363.05 150 354.99 152.93 347.19 156.13 339.63 159.21 331.94 162.56 324.42 166.16 317.03 169.61 309.45 173.31 301.93 177.23 294.41 181 286.63 185.01 278.8 189.24 270.88 193.33 262.66 197.67 254.32 202.23 245.88 206.68 237.17 211.38 228.4 216.33 219.62 221.19 210.73 226.32 201.97 231.71 193.46 237.04 185.11 242.65 177.21 248.54 169.91 254.39 163.09 260.52 157.09 266.92 152.02 273.31 147.66 279.98 144.34 286.9 142.13 293.82 140.6 301.01 140.07 308.44 140.48 315.86 141.25 323.53 142.65 331.42 144.52 339.31 146.18 347.42 147.92 355.74 149.56 364.04 150.45 372.56 150.95 381.26 150.99"
                stroke-dasharray="10 7" transform="rotate(8.08, 400, 400)" opacity="0.65"></path>
        <path
                d="M383.73 162.4C392.12 161.52 400.53 160.27 408.93 158.75 417.35 156.65 425.78 154.59 434.21 152.74 442.67 150.84 451.15 149.52 459.64 148.92 468.17 148.74 476.74 149.52 485.32 151.3 493.98 153.75 502.66 157.25 511.37 161.73 520.15 166.86 528.96 172.86 537.77 179.59 546.64 186.74 555.5 194.44 564.3 202.53 573.13 210.76 581.87 219.2 590.44 227.75 598.97 236.19 607.27 244.63 615.27 253 623.11 261.13 630.55 269.17 637.5 277.1 644.16 284.76 650.22 292.34 655.6 299.87 660.56 307.16 664.73 314.46 668.05 321.81 670.86 328.99 672.75 336.28 673.69 343.73 674.11 351.06 673.58 358.61 672.1 366.4 670.19 374.13 667.43 382.14 663.86 390.44 660.06 398.73 655.62 407.35 650.62 416.29 645.66 425.24 640.47 434.32 635.16 443.5 630.17 452.68 625.2 461.95 620.35 471.25 615.99 480.54 611.8 489.82 607.83 499.02 604.4 508.14 601.18 517.1 598.14 525.81 595.61 534.32 593.19 542.46 590.85 550.1 588.89 557.41 586.91 564.08 584.85 570.01 578.73 582.89 566.95 591.47 561.65 591.14 555.8 590.44 541.64 589.61 533.34 590.85 527.56 593.12 521.35 596.4 514.73 600.78 508.03 606.61 500.94 613.53 493.51 621.43 486.02 630.33 478.2 639.71 470.09 649.19 461.95 658.63 453.53 667.34 444.86 674.83 436.19 681.05 427.28 685.29 418.17 687.25 409.06 687.2 399.96 684.73 390.92 680.05 381.87 673.81 372.88 665.97 363.96 657 355.05 647.58 346.21 637.85 337.47 628.25 328.74 619.32 320.1 611.12 311.58 603.86 303.07 597.91 294.68 593.05 286.45 589.26 278.23 586.77 270.16 585.11 262.29 584.07 254.44 583.88 246.8 583.91 239.38 583.91 232.02 584.18 224.91 584.05 218.08 583.36 211.34 582.49 204.89 580.82 198.79 578.32 192.79 575.4 187.16 571.6 181.92 566.94 176.81 561.84 172.11 555.97 167.86 549.4 163.75 542.49 160.1 535.01 156.92 527.08 153.9 518.92 151.35 510.43 149.31 501.7 147.4 492.85 145.99 483.85 145.09 474.77 144.29 465.66 143.99 456.52 144.19 447.4 144.45 438.28 145.19 429.21 146.41 420.21 147.64 411.21 149.29 402.49 151.33 394.06 153.32 385.6 155.67 377.39 158.34 369.42 160.92 361.38 163.81 353.54 166.96 345.86 169.99 338.07 173.29 330.38 176.81 322.76 180.2 314.97 183.83 307.19 187.66 299.39 191.36 291.37 195.28 283.28 199.41 275.11 203.4 266.71 207.62 258.23 212.06 249.7 216.38 241 220.94 232.3 225.73 223.68 230.42 215.06 235.37 206.65 240.56 198.58 245.69 190.76 251.07 183.45 256.72 176.8 262.31 170.65 268.18 165.33 274.3 160.94 280.4 157.22 286.76 154.49 293.37 152.78 299.97 151.67 306.82 151.47 313.91 152.11 321 153.01 328.32 154.47 335.87 156.32 343.41 157.93 351.18 159.58 359.16 161.12 367.13 161.93 375.32 162.38 383.72 162.4"
                stroke-dasharray="8 8" transform="rotate(12.12, 400, 400)" opacity="0.53"></path>
        <path
                d="M386.67 173.81C394.76 172.97 402.88 171.78 411.01 170.34 419.16 168.32 427.33 166.34 435.51 164.52 443.73 162.61 451.97 161.2 460.23 160.42 468.53 159.98 476.86 160.41 485.21 161.74 493.62 163.68 502.05 166.59 510.49 170.45 518.98 174.92 527.49 180.24 535.96 186.32 544.48 192.86 552.96 199.98 561.34 207.57 569.73 215.37 578 223.47 586.07 231.76 594.07 240.05 601.82 248.4 609.24 256.75 616.5 264.96 623.35 273.12 629.7 281.2 635.77 289.08 641.26 296.88 646.09 304.63 650.53 312.18 654.22 319.71 657.12 327.25 659.56 334.63 661.15 342.08 661.86 349.62 662.11 357.05 661.49 364.64 660 372.39 658.15 380.09 655.51 388 652.13 396.13 648.54 404.25 644.36 412.62 639.66 421.24 634.99 429.86 630.09 438.53 625.06 447.23 620.29 455.93 615.53 464.62 610.83 473.28 606.56 481.89 602.43 490.42 598.46 498.77 594.98 507.03 591.66 515.03 588.49 522.71 585.78 530.18 583.18 537.21 580.64 543.71 577.37 552.65 570.94 566.45 567.51 571.06 559.82 575.55 544.95 576.54 538.56 576.48 534.09 577.21 529.2 578.43 523.88 580.33 518.5 583.39 512.7 587.39 506.52 592.37 500.28 598.61 493.66 605.77 486.69 613.7 479.68 622.43 472.35 631.47 464.71 640.48 457.05 649.35 449.11 657.46 440.91 664.38 432.7 670.12 424.25 674.03 415.59 675.84 406.92 675.84 398.26 673.61 389.62 669.36 380.98 663.66 372.38 656.45 363.84 648.11 355.3 639.27 346.83 630.03 338.44 620.76 330.06 611.98 321.77 603.73 313.6 596.23 305.43 589.83 297.39 584.37 289.49 579.85 281.61 576.53 273.89 574.01 266.35 572.14 258.85 571.16 251.55 570.49 244.48 569.95 237.46 569.83 230.69 569.48 224.19 568.77 217.78 568.06 211.67 566.74 205.89 564.75 200.21 562.5 194.89 559.49 189.95 555.72 185.13 551.61 180.71 546.76 176.72 541.25 172.87 535.44 169.45 529.03 166.5 522.13 163.68 515.01 161.33 507.49 159.45 499.65 157.7 491.69 156.43 483.49 155.64 475.13 154.96 466.71 154.74 458.18 155.01 449.59 155.34 440.99 156.12 432.35 157.37 423.7 158.63 415.05 160.29 406.59 162.31 398.33 164.3 390.05 166.62 381.94 169.25 373.99 171.8 365.99 174.64 358.11 177.74 350.33 180.72 342.45 183.96 334.62 187.42 326.81 190.74 318.87 194.29 310.9 198.05 302.9 201.67 294.73 205.5 286.5 209.54 278.22 213.44 269.78 217.55 261.3 221.87 252.82 226.08 244.27 230.5 235.8 235.14 227.49 239.69 219.27 244.47 211.34 249.48 203.82 254.42 196.61 259.6 189.96 265.02 184 270.39 178.56 276.01 173.93 281.88 170.21 287.71 167.09 293.79 164.91 300.11 163.67 306.41 162.94 312.95 163.02 319.74 163.85 326.5 164.86 333.5 166.34 340.73 168.15 347.95 169.69 355.39 171.24 363.05 172.67 370.7 173.41 378.58 173.81 386.66 173.81"
                stroke-dasharray="5 11" transform="rotate(16.16, 400, 400)" opacity="0.69"></path>
        <path
                d="M390.03 185.22C397.81 184.41 405.63 183.29 413.48 181.93 421.35 180.02 429.25 178.11 437.17 176.35 445.11 174.45 453.09 172.98 461.09 172.06 469.12 171.4 477.18 171.51 485.26 172.45 493.37 173.9 501.51 176.26 509.63 179.5 517.79 183.31 525.94 187.96 534.04 193.36 542.16 199.23 550.22 205.71 558.15 212.71 566.07 219.99 573.83 227.62 581.38 235.52 588.84 243.5 596.02 251.62 602.87 259.82 609.54 267.95 615.8 276.08 621.58 284.18 627.08 292.15 632.02 300.07 636.32 307.94 640.28 315.65 643.53 323.33 646.04 331 648.14 338.54 649.46 346.1 649.97 353.7 650.07 361.22 649.39 368.82 647.91 376.52 646.11 384.18 643.6 391.98 640.4 399.92 637.04 407.85 633.11 415.95 628.7 424.21 624.32 432.48 619.7 440.71 614.93 448.89 610.4 457.06 605.84 465.14 601.32 473.1 597.16 481.01 593.1 488.74 589.16 496.23 585.65 503.61 582.26 510.68 579 517.36 576.15 523.84 573.38 529.84 570.68 535.3 563.64 548.34 552.92 560.1 548.81 561.48 544.49 562.36 534.19 563.32 528.11 564.3 523.9 565.79 519.29 567.82 514.3 570.51 509.27 574.28 503.85 578.89 498.06 584.36 492.23 590.89 486.04 598.18 479.51 606.05 472.95 614.55 466.07 623.2 458.9 631.71 451.7 640 444.22 647.52 436.48 653.9 428.74 659.17 420.75 662.76 412.53 664.43 404.32 664.47 396.09 662.48 387.87 658.63 379.66 653.45 371.47 646.84 363.32 639.13 355.18 630.89 347.09 622.16 339.08 613.29 331.08 604.74 323.16 596.55 315.35 588.92 307.56 582.2 299.88 576.26 292.34 571.14 284.83 567.08 277.47 563.77 270.29 561.1 263.16 559.3 256.22 557.9 249.5 556.73 242.84 556.06 236.43 555.34 230.28 554.41 221.34 553.02 205.15 547.61 198.01 543.27 193.49 539.92 189.36 535.92 185.63 531.28 182.04 526.41 178.86 520.96 176.12 514.99 173.51 508.84 171.35 502.23 169.64 495.26 168.05 488.17 166.91 480.77 166.24 473.12 165.66 465.43 165.53 457.54 165.86 449.49 166.24 441.44 167.07 433.26 168.33 424.99 169.6 416.72 171.26 408.55 173.27 400.49 175.24 392.42 177.54 384.44 180.13 376.55 182.64 368.62 185.43 360.74 188.47 352.91 191.4 345 194.57 337.1 197.96 329.2 201.23 321.19 204.7 313.14 208.38 305.07 211.93 296.87 215.68 288.64 219.62 280.38 223.43 272.04 227.45 263.72 231.66 255.46 235.75 247.22 240.06 239.12 244.56 231.25 248.97 223.54 253.6 216.2 258.44 209.31 263.21 202.78 268.21 196.84 273.42 191.59 278.59 186.86 283.98 182.92 289.61 179.83 295.19 177.3 301.02 175.63 307.07 174.8 313.09 174.41 319.35 174.73 325.84 175.7 332.31 176.78 339.01 178.26 345.93 180.01 352.84 181.47 359.97 182.91 367.32 184.23 374.67 184.9 382.23 185.24 390.02 185.22"
                stroke-dasharray="9 3" transform="rotate(20.200000000000003, 400, 400)" opacity="0.48"></path>
        <path
                d="M393.68 196.63C401.16 195.86 408.69 194.8 416.25 193.53 423.81 191.72 431.42 189.91 439.06 188.21 446.71 186.35 454.4 184.85 462.11 183.82 469.84 182.98 477.6 182.83 485.35 183.4 493.14 184.41 500.93 186.25 508.7 188.91 516.49 192.09 524.24 196.06 531.93 200.77 539.62 205.94 547.21 211.74 554.66 218.08 562.08 224.74 569.32 231.81 576.33 239.21 583.23 246.75 589.86 254.5 596.13 262.39 602.23 270.29 607.92 278.25 613.13 286.23 618.09 294.13 622.51 302.03 626.33 309.89 629.82 317.65 632.67 325.38 634.82 333.08 636.62 340.68 637.69 348.28 638.03 355.89 638.01 363.42 637.28 370.99 635.82 378.61 634.09 386.18 631.7 393.83 628.7 401.55 625.54 409.27 621.87 417.07 617.74 424.94 613.63 432.82 609.29 440.59 604.8 448.22 600.5 455.84 596.15 463.3 591.81 470.55 587.78 477.76 583.81 484.72 579.92 491.37 576.41 497.92 572.99 504.11 569.66 509.87 565.26 518.02 557.15 531.37 553.3 536.42 545.94 543.17 533.65 548.4 528.77 549.32 523.61 550.92 511.6 556.6 504.72 561.39 499.98 565.77 494.89 570.87 489.47 576.7 484 583.42 478.2 590.72 472.09 598.46 465.95 606.65 459.5 614.88 452.76 622.86 446 630.58 438.97 637.52 431.69 643.37 424.39 648.2 416.86 651.49 409.1 653.02 401.34 653.09 393.55 651.32 385.76 647.85 377.98 643.17 370.21 637.14 362.47 630.05 354.74 622.42 347.06 614.23 339.44 605.81 331.84 597.57 324.32 589.53 316.89 581.89 309.49 574.97 302.2 568.68 295.04 563.08 287.92 558.4 280.95 554.39 274.14 550.99 267.39 548.41 260.83 546.26 254.48 544.42 248.2 543.12 242.16 541.89 236.37 540.6 227.96 538.88 212.79 533.79 206.12 530.02 199.98 525.51 189.79 513.43 185.8 505.92 183.4 500.61 181.42 494.83 179.88 488.64 178.44 482.36 177.43 475.71 176.87 468.77 176.39 461.77 176.34 454.51 176.72 447.03 177.16 439.53 178.02 431.83 179.29 423.97 180.58 416.1 182.23 408.25 184.21 400.44 186.16 392.62 188.42 384.82 190.96 377.04 193.43 369.24 196.17 361.44 199.14 353.65 202.02 345.8 205.12 337.93 208.44 330.04 211.64 322.08 215.04 314.08 218.64 306.06 222.11 297.99 225.78 289.9 229.63 281.83 233.36 273.75 237.28 265.73 241.38 257.84 245.37 250.04 249.56 242.44 253.94 235.13 258.22 228.05 262.71 221.36 267.4 215.18 272.01 209.36 276.83 204.16 281.86 199.64 286.83 195.6 292.02 192.32 297.42 189.84 305.58 187.24 322.94 186.32 332.15 187.65 338.34 188.77 344.76 190.22 351.39 191.89 358 193.25 364.84 194.58 371.89 195.79 378.93 196.37 386.19 196.67 393.67 196.63"
                stroke-dasharray="8 6" transform="rotate(24.24, 400, 400)" opacity="0.45"></path>
        <path
                d="M397.53 208.04C404.7 207.31 411.92 206.32 419.17 205.13 426.43 203.44 433.74 201.73 441.06 200.11 448.4 198.3 455.77 196.8 463.16 195.7 470.56 194.73 477.97 194.34 485.38 194.61 492.81 195.23 500.22 196.6 507.59 198.71 514.97 201.28 522.3 204.61 529.54 208.63 536.76 213.09 543.87 218.18 550.82 223.82 557.72 229.8 564.42 236.22 570.88 243.02 577.24 250.01 583.3 257.26 589.01 264.71 594.55 272.23 599.68 279.87 604.36 287.58 608.8 295.27 612.73 303 616.1 310.71 619.17 318.37 621.65 326.02 623.48 333.64 625 341.2 625.86 348.73 626.05 356.25 625.93 363.72 625.16 371.18 623.74 378.64 622.08 386.08 619.83 393.52 617.01 400.98 614.06 408.43 610.64 415.9 606.77 423.36 602.94 430.83 598.87 438.12 594.65 445.2 590.59 452.27 586.45 459.11 582.29 465.68 578.41 472.21 574.54 478.45 570.74 484.33 567.25 490.13 563.82 495.54 560.47 500.51 555.94 507.54 547.47 518.9 543.41 523.17 535.68 529.23 523.14 535.14 518.32 536.87 513.28 539.43 501.75 547.2 495.22 552.94 490.74 557.8 485.94 563.28 480.84 569.36 475.71 576.15 470.27 583.38 464.54 590.9 458.78 598.73 452.73 606.49 446.41 613.95 440.08 621.09 433.48 627.46 426.63 632.81 419.78 637.21 412.69 640.21 405.38 641.61 398.08 641.71 390.73 640.15 383.38 637.04 376.04 632.82 368.7 627.36 361.39 620.88 354.09 613.85 346.82 606.23 339.62 598.3 332.44 590.43 325.32 582.63 318.3 575.09 311.31 568.1 304.42 561.59 297.67 555.63 290.95 550.45 284.37 545.85 277.97 541.8 271.61 538.51 265.44 535.64 259.48 533.12 250.75 530.25 234.64 525.32 227.35 522.71 220.5 519.95 208.61 512.43 203.63 507.47 199.2 501.87 192.45 488.14 190.17 480.09 188.88 474.51 188 468.55 187.54 462.25 187.15 455.9 187.17 449.25 187.61 442.31 188.09 435.37 188.97 428.16 190.25 420.72 191.54 413.29 193.18 405.8 195.13 398.28 197.05 390.76 199.27 383.2 201.76 375.62 204.18 368.02 206.86 360.39 209.76 352.73 212.58 345.05 215.61 337.32 218.85 329.57 221.98 321.8 225.31 313.99 228.82 306.19 232.22 298.37 235.81 290.58 239.56 282.85 243.21 275.17 247.03 267.61 251.03 260.22 254.93 252.98 259 245.99 263.26 239.34 267.42 232.94 271.78 226.98 276.31 221.54 280.78 216.47 285.44 211.99 290.29 208.19 297.58 203.49 313.11 198.32 321.36 197.77 326.89 197.89 332.64 198.55 338.59 199.69 344.52 200.82 350.66 202.22 357.01 203.79 363.34 205.04 369.89 206.26 376.64 207.35 383.39 207.85 390.35 208.1 397.52 208.04"
                stroke-dasharray="1 4" transform="rotate(28.28, 400, 400)" opacity="0.98"></path>
        <path
                d="M401.45 219.45C408.31 218.76 415.21 217.83 422.15 216.73 429.09 215.16 436.06 213.57 443.06 212.04 450.06 210.3 457.09 208.82 464.12 207.68 471.17 206.61 478.21 206.05 485.23 206.05 492.27 206.34 499.27 207.29 506.22 208.91 513.16 210.92 520.03 213.62 526.79 216.98 533.53 220.75 540.14 225.12 546.57 230.04 552.95 235.3 559.11 241.02 565.02 247.14 570.83 253.49 576.34 260.14 581.5 267.03 586.5 274.05 591.11 281.24 595.28 288.53 599.23 295.87 602.7 303.27 605.65 310.69 608.34 318.12 610.48 325.54 612.02 332.95 613.29 340.33 613.97 347.69 614.03 355.01 613.84 362.3 613.05 369.57 611.67 376.8 610.09 384.02 607.97 391.2 605.33 398.34 602.59 405.48 599.41 412.58 595.81 419.62 592.25 426.65 588.45 433.45 584.48 440 580.66 446.53 576.74 452.79 572.78 458.74 569.05 464.66 565.31 470.24 561.6 475.46 556.46 482.99 546.8 495.87 542.24 501.13 533.97 509.42 521.71 518.19 517.38 520.33 513 522.82 503.27 528.93 497.83 533.06 494.13 536.59 490.15 540.6 485.91 545.11 481.65 550.34 477.12 556.08 472.3 562.28 467.47 569.04 462.36 576.11 456.98 583.34 451.57 590.76 445.91 598.04 439.98 604.94 434.05 611.52 427.86 617.34 421.44 622.2 415.02 626.2 408.37 628.92 401.51 630.2 394.65 630.33 387.75 628.96 380.84 626.18 373.94 622.41 367.04 617.49 360.16 611.6 353.29 605.17 346.46 598.13 339.68 590.72 332.93 583.28 326.24 575.8 319.64 568.45 313.07 561.51 306.6 554.9 300.26 548.72 293.96 543.18 287.8 538.12 281.8 533.54 275.85 529.62 270.09 526.11 264.52 522.94 256.38 519.11 241.4 512.65 234.63 509.56 228.29 506.54 217.32 499.18 212.75 494.61 208.69 489.57 202.55 477.3 200.51 470.09 198.99 462.4 197.99 445.16 198.52 435.7 199.04 429.27 199.94 422.55 201.21 415.56 202.5 408.57 204.11 401.47 206.03 394.3 207.91 387.13 210.08 379.88 212.51 372.58 214.87 365.28 217.48 357.91 220.31 350.51 223.06 343.1 226.03 335.64 229.18 328.17 232.24 320.71 235.49 313.24 238.91 305.79 242.23 298.38 245.72 291.03 249.38 283.78 252.94 276.63 256.67 269.64 260.56 262.87 264.36 256.28 268.33 249.98 272.46 244.05 276.51 238.39 280.74 233.19 285.13 228.5 291.71 222.28 305.69 213.49 313.1 211.02 320.63 209.7 336.61 210.26 345.06 211.8 350.74 212.91 356.62 214.24 362.69 215.7 368.75 216.83 375.01 217.93 381.47 218.9 387.93 219.33 394.58 219.52 401.44 219.45"
                stroke-dasharray="11 3" transform="rotate(32.32, 400, 400)" opacity="0.82"></path>
        <path
                d="M405.33 230.86C411.87 230.21 418.44 229.35 425.04 228.34 431.65 226.89 438.28 225.42 444.92 223.99 451.57 222.35 458.23 220.91 464.88 219.77 471.54 218.64 478.19 217.95 484.8 217.74 491.42 217.74 497.99 218.33 504.48 219.51 510.97 221.01 517.36 223.15 523.63 225.88 529.87 228.98 535.97 232.65 541.88 236.85 547.72 241.38 553.35 246.37 558.72 251.77 563.99 257.41 568.96 263.39 573.6 269.64 578.08 276.04 582.19 282.65 585.88 289.42 589.38 296.26 592.43 303.21 594.99 310.22 597.33 317.26 599.16 324.33 600.45 331.39 601.51 338.46 602.03 345.52 601.99 352.54 601.73 359.55 600.94 366.53 599.61 373.44 598.12 380.36 596.14 387.21 593.68 393.99 591.14 400.76 588.19 407.46 584.85 414.05 581.54 420.64 578 426.96 574.3 433 570.71 439.02 567.02 444.75 563.26 450.15 557.9 458.04 547.47 472 542.46 478 537.83 483.53 528.93 492.64 524.59 496.28 516.28 502.61 503.28 511.57 498.52 515.05 493.64 519.45 482.84 530.75 476.87 537.86 472.82 543.33 468.51 549.2 463.96 555.41 459.4 562.05 454.58 568.88 449.52 575.76 444.45 582.74 439.14 589.5 433.59 595.85 428.03 601.87 422.24 607.16 416.24 611.55 410.22 615.17 404 617.63 397.58 618.79 391.17 618.94 384.71 617.74 378.25 615.28 371.79 611.94 365.33 607.53 358.89 602.21 352.47 596.37 346.07 589.93 339.73 583.06 333.42 576.1 327.16 569.01 321 561.94 314.86 555.14 308.82 548.56 302.91 542.29 297.03 536.52 291.29 531.13 285.71 526.14 280.18 521.71 274.82 517.65 269.66 513.91 262.11 509.17 248.26 501.11 242.02 497.41 236.19 493.95 226.13 486.28 221.96 481.83 218.26 477.08 212.73 465.78 210.92 459.19 209.59 452.2 208.86 436.42 209.45 427.68 210 421.74 210.91 415.5 212.17 408.95 213.45 402.41 215.03 395.74 216.9 388.97 218.75 382.2 220.86 375.33 223.21 368.39 225.52 361.46 228.06 354.46 230.8 347.42 233.48 340.4 236.36 333.34 239.42 326.28 242.4 319.25 245.56 312.24 248.89 305.28 252.13 298.4 255.53 291.6 259.09 284.96 262.56 278.43 266.19 272.1 269.98 266.03 273.67 260.16 277.53 254.6 281.54 249.43 287.53 242.3 300.2 230.96 306.9 226.93 313.69 223.97 328.06 221.37 335.66 221.58 343.39 222.42 359.73 225.66 368.34 227.61 374.13 228.63 380.11 229.59 386.28 230.45 392.43 230.8 398.78 230.95 405.32 230.86"
                stroke-dasharray="6 9" transform="rotate(36.36, 400, 400)" opacity="0.21"></path>
        <path
                d="M409.05 242.27C415.25 241.66 421.49 240.87 427.74 239.95 433.99 238.63 440.26 237.28 446.53 235.96 459.09 232.73 471.64 230.47 484 229.63 496.34 229.4 508.43 231.3 520.01 235.35 531.43 240.62 542.19 247.98 551.98 257.06 561.36 267.1 569.53 278.42 576.2 290.57 582.18 303.17 586.45 316.23 588.79 329.41 590.34 342.73 589.95 356.02 587.57 369.05 586.17 375.58 584.32 382.04 582.04 388.4 579.7 394.77 576.97 401.04 573.89 407.18 570.83 413.32 567.55 419.18 564.1 424.75 560.75 430.31 557.28 435.56 553.73 440.5 547.14 450.32 540.38 458.82 533.63 465.96 527.7 473.04 521.71 478.86 515.64 483.57 510.24 488.64 504.53 493.14 498.43 497.49 492.7 503.1 486.33 509.39 479.27 516.76 472.33 526.13 464.55 536.86 455.92 548.71 447.28 561.79 437.74 574.82 427.36 586.67 422.15 592.13 416.74 596.92 411.14 600.86 405.52 604.12 399.72 606.33 393.74 607.38 387.75 607.55 381.73 606.51 375.71 604.35 369.69 601.4 363.68 597.47 357.68 592.71 345.73 581.79 333.92 568.98 322.44 555.48 311.07 542.64 300.11 530.51 289.74 519.55 279.57 510.42 270.07 502.45 261.45 495.37 253.1 489.68 245.7 484.14 239.42 478.34 233.47 473.07 228.69 466.94 225.22 459.75 222.08 452.59 220.23 444.16 219.79 434.45 219.75 426.99 221.43 410.51 223.13 401.52 224.39 395.43 225.94 389.2 227.76 382.87 229.55 376.54 231.6 370.11 233.88 363.62 238.3 350.66 243.59 337.49 249.58 324.36 255.29 311.43 261.68 298.75 268.66 286.69 275.33 275.18 282.62 264.67 290.45 255.61 298.02 247.55 306.2 241.29 314.97 237.14 323.54 234.06 332.77 232.97 342.62 233.75 352.35 234.79 362.78 236.87 373.86 239.52 379.38 240.41 385.07 241.25 390.94 241.99 396.79 242.27 402.83 242.37 409.04 242.27"
                stroke-dasharray="11 9" transform="rotate(40.400000000000006, 400, 400)" opacity="0.08"></path>
        <path
                d="M412.49 253.68C424.22 252.08 436.03 250.06 447.78 247.94 459.56 244.94 471.26 242.74 482.73 241.73 494.17 241.1 505.29 242.31 515.87 245.4 526.28 249.49 536 255.51 544.77 263.17 553.17 271.71 560.4 281.57 566.23 292.34 571.46 303.6 575.13 315.44 577.04 327.51 578.3 339.78 577.81 352.1 575.54 364.21 572.84 376.37 568.59 388.26 562.93 399.65 557.34 411.03 550.98 421.32 544.19 430.45 537.94 439.53 531.46 447.45 524.9 454.21 519.04 461.02 513.06 466.86 506.98 471.9 501.49 477.42 495.72 482.66 489.61 487.96 483.85 494.47 477.55 501.69 470.67 509.86 463.93 519.67 456.45 530.53 448.26 542.12 440.08 554.52 431.1 566.61 421.4 577.39 411.67 586.82 401.2 593.32 390.08 595.97 378.95 595.56 367.75 591.02 356.63 583.1 345.57 573.32 334.65 561.62 324.05 549.03 313.57 536.75 303.48 524.8 293.96 513.66 284.62 503.96 275.93 495.21 268.06 487.29 260.44 480.63 253.71 474.27 248.04 467.89 242.66 462.1 238.36 455.76 235.29 448.63 232.49 441.65 230.91 433.64 230.62 424.55 230.52 415.45 231.66 405.23 234.1 393.94 236.56 382.65 240.08 370.88 244.5 358.87 248.78 346.93 253.87 334.86 259.64 322.92 265.17 311.23 271.36 299.91 278.09 289.3 284.56 279.25 291.61 270.26 299.17 262.7 306.5 256.02 314.4 251.02 322.83 247.91 331.08 245.63 339.94 245.06 349.35 246.08 358.66 247.14 368.6 249.06 379.13 251.43 389.62 252.61 400.75 253.43 412.48 253.68"
                stroke-dasharray="7 11" transform="rotate(44.44, 400, 400)" opacity="0.56"></path>
        <path
                d="M415.55 265.09C426.57 263.62 437.63 261.82 448.58 259.93 459.54 257.18 470.38 255.1 480.94 253.99 491.45 253.08 501.6 253.73 511.19 256.01 520.61 259.07 529.33 263.86 537.12 270.18 544.58 277.27 550.94 285.66 555.99 295 560.55 304.84 563.67 315.34 565.22 326.18 566.23 337.24 565.68 348.45 563.54 359.54 561.04 370.69 557.16 381.64 551.97 392.14 546.84 402.65 540.97 412.18 534.64 420.69 528.76 429.2 522.58 436.73 516.26 443.33 510.52 450.07 504.63 456.1 498.61 461.61 493.09 467.66 487.31 473.63 481.24 479.8 475.49 487.07 469.28 494.99 462.58 503.7 456.03 513.7 448.86 524.45 441.07 535.58 433.32 547.19 424.89 558.28 415.82 568 406.74 576.44 397.01 582.21 386.72 584.56 376.42 584.27 366.08 580.35 355.84 573.37 345.65 564.69 335.62 554.12 325.91 542.53 316.3 530.98 307.07 519.43 298.4 508.38 289.88 498.39 281.99 489.13 274.87 480.59 267.96 473.12 261.9 466.02 256.81 459.05 251.97 452.69 248.14 446.01 245.44 438.83 242.98 431.84 241.64 424.08 241.5 415.47 241.52 406.87 242.69 397.35 245.06 386.92 247.45 376.5 250.85 365.71 255.08 354.78 259.19 343.92 264.08 333.05 269.61 322.42 274.94 312.05 280.89 302.14 287.36 293.03 293.61 284.43 300.4 276.9 307.67 270.74 314.74 265.32 322.34 261.42 330.42 259.19 338.34 257.56 346.81 257.38 355.79 258.51 364.67 259.54 374.11 261.25 384.08 263.32 394.02 264.26 404.52 264.91 415.55 265.09"
                stroke-dasharray="7 11" transform="rotate(48.48, 400, 400)" opacity="0.47"></path>
        <path
                d="M418.14 276.5C428.43 275.16 438.71 273.57 448.84 271.93 458.96 269.45 468.92 267.53 478.56 266.41 488.14 265.34 497.33 265.56 505.94 267.17 514.39 269.36 522.16 273.07 529.03 278.17 535.61 283.91 541.16 290.88 545.51 298.82 549.45 307.21 552.1 316.32 553.34 325.87 554.14 335.64 553.55 345.65 551.55 355.66 549.27 365.74 545.73 375.71 541.01 385.37 536.33 395.02 530.94 403.87 525.08 411.9 519.57 419.94 513.73 427.23 507.7 433.83 502.15 440.61 496.39 446.92 490.5 452.94 485.02 459.49 479.3 466.11 473.31 472.99 467.62 480.8 461.53 489.19 455.03 498.17 448.68 508.11 441.81 518.52 434.43 529.04 427.08 539.77 419.17 549.83 410.72 558.51 402.26 566 393.25 571.08 383.76 573.16 374.28 572.98 364.78 569.6 355.41 563.52 346.08 555.9 336.92 546.47 328.09 535.94 319.34 525.24 310.96 514.29 303.12 503.57 295.41 493.58 288.29 484.08 281.9 475.16 275.69 467.11 270.26 459.43 265.74 451.97 261.42 445.07 258.04 438.04 255.7 430.74 253.55 423.65 252.43 416.04 252.42 407.81 252.54 399.61 253.72 390.71 256.02 381.12 258.34 371.53 261.58 361.73 265.61 351.91 269.54 342.17 274.21 332.54 279.48 323.25 284.58 314.21 290.27 305.72 296.46 298.05 302.46 290.84 308.97 284.67 315.93 279.77 322.72 275.44 329.99 272.48 337.7 270.94 345.27 269.81 353.34 269.88 361.86 271.03 370.29 271.96 379.23 273.44 388.62 275.19 397.98 275.91 407.84 276.39 418.14 276.5"
                stroke-dasharray="3 5" transform="rotate(52.52, 400, 400)" opacity="0.90"></path>
        <path
                d="M420.17 287.91C429.72 286.7 439.2 285.31 448.49 283.91 457.77 281.73 466.84 280 475.55 278.94 484.22 277.8 492.46 277.73 500.13 278.83 507.65 280.31 514.51 283.11 520.52 287.14 526.28 291.67 531.09 297.35 534.82 303.96 538.2 310.95 540.43 318.7 541.41 326.95 542.04 335.41 541.44 344.21 539.59 353.13 537.52 362.11 534.32 371.1 530.05 379.94 525.81 388.78 520.89 397.03 515.5 404.65 510.39 412.31 504.91 419.44 499.21 426.1 493.89 432.96 488.34 439.56 482.63 446.03 477.27 452.98 471.66 460.09 465.82 467.47 460.23 475.58 454.31 484.16 448.04 493.14 441.91 502.8 435.35 512.68 428.37 522.45 421.43 532.23 414.02 541.25 406.17 548.91 398.32 555.49 390.01 559.93 381.3 561.75 372.6 561.66 363.92 558.8 355.4 553.55 346.91 546.94 338.61 538.63 330.64 529.19 322.73 519.45 315.19 509.28 308.16 499.09 301.24 489.37 294.87 479.92 289.18 470.89 283.64 462.52 278.82 454.47 274.83 446.68 271.02 439.37 268.06 432.06 266.05 424.65 264.2 417.46 263.29 409.94 263.38 402.05 263.59 394.2 264.77 385.86 266.98 377.06 269.21 368.26 272.29 359.43 276.1 350.72 279.83 342.08 284.25 333.67 289.24 325.71 294.1 317.95 299.51 310.8 305.39 304.48 311.11 298.52 317.31 293.54 323.93 289.73 330.4 286.33 337.32 284.11 344.63 283.1 351.83 282.31 359.47 282.52 367.5 283.6 375.47 284.38 383.87 285.59 392.66 287.04 401.43 287.53 410.62 287.86 420.17 287.91"
                stroke-dasharray="7 3" transform="rotate(56.56, 400, 400)" opacity="0.64"></path>
        <path
                d="M421.59 299.32C430.38 298.23 439.04 297.05 447.48 295.88 455.91 294 464.09 292.5 471.9 291.55 479.66 290.43 486.99 290.2 493.76 290.92 500.39 291.88 506.39 293.94 511.61 297.08 516.61 300.57 520.75 305.1 523.92 310.51 526.81 316.23 528.68 322.69 529.44 329.72 529.93 336.91 529.35 344.52 527.65 352.37 525.79 360.27 522.93 368.32 519.09 376.38 515.28 384.43 510.82 392.11 505.9 399.37 501.2 406.68 496.12 413.68 490.78 420.39 485.74 427.29 480.46 434.1 474.99 440.89 469.8 448.08 464.38 455.47 458.75 463.09 453.32 471.26 447.6 479.77 441.61 488.5 435.73 497.66 429.5 506.85 422.93 515.76 416.41 524.54 409.5 532.51 402.24 539.2 394.98 544.92 387.35 548.77 379.41 550.34 371.47 550.33 363.6 547.93 355.91 543.45 348.23 537.8 340.77 530.58 333.62 522.25 326.53 513.54 319.8 504.27 313.55 494.81 307.39 485.59 301.75 476.46 296.72 467.59 291.83 459.18 287.6 451.01 284.12 443.09 280.78 435.56 278.22 428.1 276.51 420.67 274.93 413.43 274.2 406.05 274.39 398.48 274.67 390.97 275.84 383.17 277.94 375.13 280.06 367.09 282.97 359.18 286.54 351.54 290.06 343.94 294.22 336.69 298.9 329.96 303.48 323.38 308.59 317.44 314.13 312.31 319.54 307.45 325.4 303.49 331.64 300.56 337.77 297.89 344.3 296.23 351.19 295.59 357.98 295.01 365.17 295.25 372.69 296.19 380.16 296.77 388 297.71 396.17 298.85 404.31 299.14 412.81 299.32 421.59 299.32"
                stroke-dasharray="9 3" transform="rotate(60.599999999999994, 400, 400)" opacity="0.41"></path>
        <path
                d="M422.36 310.73C430.36 309.77 438.2 308.77 445.79 307.83 453.37 306.25 460.68 305.01 467.6 304.21 477.71 303.04 495.25 304.71 502.33 307.89 508.41 312.33 516.08 325.74 517.44 334.3 517.83 340.32 517.27 346.83 515.74 353.67 514.09 360.55 511.54 367.7 508.12 375.01 504.73 382.31 500.73 389.44 496.28 396.35 491.99 403.29 487.33 410.11 482.39 416.79 477.68 423.64 472.71 430.52 467.55 437.43 462.6 444.66 457.43 452.08 452.06 459.68 446.87 467.66 441.42 475.84 435.73 484.09 430.15 492.58 424.28 500.95 418.14 508.92 412.05 516.67 405.65 523.62 398.97 529.38 392.3 534.29 385.34 537.58 378.15 538.93 370.95 538.99 363.86 537.01 356.96 533.24 350.09 528.48 343.43 522.3 337.09 515.08 330.78 507.43 324.83 499.16 319.33 490.58 313.89 482.06 308.94 473.48 304.56 465.02 300.27 456.86 296.59 448.84 293.58 441.03 290.69 433.5 288.5 426.07 287.07 418.76 285.74 411.6 285.19 404.42 285.45 397.22 285.78 390.07 286.92 382.82 288.9 375.5 290.9 368.19 293.61 361.15 296.94 354.49 300.22 347.86 304.1 341.67 308.46 336.02 312.74 330.49 317.51 325.61 322.67 321.48 327.75 317.52 333.24 314.38 339.07 312.12 344.81 310.01 350.92 308.74 357.34 308.3 363.69 307.82 370.39 308 377.36 308.74 384.3 309.11 391.56 309.78 399.07 310.62 406.58 310.73 414.36 310.78 422.36 310.73"
                stroke-dasharray="5 6" transform="rotate(64.64, 400, 400)" opacity="0.62"></path>
        <path
                d="M422.45 322.14C429.65 321.3 436.66 320.49 443.41 319.75 450.14 318.48 456.59 317.49 462.66 316.88 471.5 315.88 486.66 317.03 492.71 319.48 497.9 322.89 504.34 333.62 505.44 340.7 505.74 345.7 505.22 351.2 503.86 357.11 502.41 363.05 500.18 369.35 497.16 375.94 494.16 382.53 490.61 389.1 486.63 395.6 482.78 402.15 478.54 408.69 474.03 415.22 469.69 421.88 465.09 428.63 460.28 435.46 455.64 442.5 450.78 449.71 445.74 457.01 440.84 464.56 435.71 472.2 430.39 479.78 425.15 487.45 419.68 494.9 414 501.89 408.36 508.61 402.47 514.56 396.39 519.43 390.31 523.6 384.01 526.38 377.54 527.52 371.08 527.63 364.75 526.03 358.63 522.91 352.52 518.97 346.64 513.78 341.06 507.63 335.52 501.06 330.31 493.85 325.51 486.25 320.77 478.6 316.47 470.77 312.69 462.94 308.98 455.27 305.81 447.65 303.25 440.19 300.77 432.91 298.91 425.73 297.74 418.7 296.65 411.79 296.23 404.93 296.55 398.17 296.92 391.45 298.01 384.75 299.86 378.14 301.72 371.53 304.23 365.31 307.29 359.53 310.33 353.78 313.89 348.5 317.91 343.8 324.06 337.15 338.27 327.31 346.2 324.28 351.52 322.55 357.17 321.51 363.09 321.15 368.96 320.68 375.12 320.73 381.52 321.24 387.9 321.39 394.53 321.78 401.37 322.35 408.2 322.29 415.25 322.22 422.45 322.14"
                stroke-dasharray="8 1" transform="rotate(68.68, 400, 400)" opacity="0.84"></path>
        <path
                d="M421.85 333.55C434.63 331.51 446.58 330.03 457.12 329.51 467.51 328 476.28 328.64 482.81 331.65 488.94 334.83 492.63 340.67 493.43 348.77 493.82 357.07 491.44 367.33 486.2 379.11 481.02 390.87 473.93 403.11 465.7 415.45 457.97 428.14 449.16 441.43 439.75 454.84 430.76 468.75 420.9 482.47 410.48 494.62 400.2 505.69 389.13 513.44 377.63 516.11 366.12 515.6 355.27 509.67 345.57 499.88 335.95 488.56 327.62 475.1 321.12 461.07 314.82 447.22 310.48 433.36 308.52 420.15 306.79 407.25 307.45 394.64 310.82 382.81 314.24 370.97 319.93 360.92 327.25 353.02 334.41 345.23 343.18 339.75 353.03 336.81 362.7 333.79 373.55 332.83 385.15 333.63 396.67 333.11 409.06 333.16 421.85 333.55"
                stroke-dasharray="9 2" transform="rotate(72.72, 400, 400)" opacity="0.80"></path>
        <path
                d="M420.59 344.96C431.74 343.27 442.03 342.24 451 342.08 463.55 341.34 479.3 349.12 481.43 358.25 481.75 365.09 479.73 373.82 475.24 384.2 470.8 394.58 464.62 405.7 457.38 417.09 450.47 428.69 442.55 440.83 434.05 452.9 425.86 465.12 416.92 476.92 407.56 487.08 398.31 496.25 388.47 502.56 378.39 504.7 368.3 504.43 358.91 499.74 350.61 491.79 342.36 482.53 335.3 471.21 329.85 459.12 324.55 446.95 320.94 434.53 319.41 422.63 318.03 410.89 318.72 399.52 321.78 389.06 324.88 378.61 329.96 369.96 336.49 363.32 342.91 356.68 350.77 352.06 359.56 349.52 368.25 346.73 377.95 345.6 388.25 345.88 398.5 345.02 409.43 344.75 420.59 344.96"
                stroke-dasharray="0 6" transform="rotate(76.76, 400, 400)" opacity="0.24"></path>
        <path
                d="M418.7 356.37C428.22 355.01 436.9 354.36 444.38 354.53 454.83 354.31 467.76 361.1 469.45 368.73 469.72 374.39 468.04 381.78 464.28 390.77 460.55 399.75 455.29 409.55 449.05 419.66 443.04 429.88 436.09 440.51 428.61 450.9 421.33 461.24 413.42 471.02 405.2 479.24 397.05 486.61 388.48 491.62 379.81 493.29 371.13 493.21 363.15 489.61 356.18 483.35 349.24 476.04 343.36 466.87 338.89 456.83 334.5 446.58 331.57 435.94 330.41 425.61 329.34 415.34 330.03 405.4 332.74 396.33 335.48 387.27 339.93 379.87 345.63 374.23 351.26 368.53 358.13 364.51 365.81 362.16 373.43 359.5 381.9 358.15 390.83 357.95 399.75 356.83 409.18 356.31 418.7 356.37"
                stroke-dasharray="11 5" transform="rotate(80.80000000000001, 400, 400)" opacity="0.71"></path>
        <path
                d="M416.24 367.78C424.13 366.72 431.25 366.4 437.32 366.83 445.79 367.12 456.16 373.32 457.49 379.74 457.73 384.44 456.38 390.61 453.32 398.18 450.27 405.76 445.92 414.06 440.71 422.63 435.64 431.23 429.74 440.07 423.36 448.58 417.11 456.94 410.33 464.69 403.32 471.07 396.36 476.79 389.1 480.63 381.84 481.88 374.57 481.93 367.97 479.28 362.26 474.54 356.56 469.02 351.8 461.91 348.22 453.95 344.68 445.75 342.37 437.06 341.51 428.5 340.71 419.93 341.37 411.58 343.71 403.94 346.06 396.3 349.84 390.05 354.66 385.24 359.46 380.35 365.29 376.78 371.79 374.51 378.27 371.95 385.44 370.4 392.95 369.81 400.47 368.53 408.35 367.83 416.24 367.78"
                stroke-dasharray="6 7" transform="rotate(84.84, 400, 400)" opacity="0.40"></path>
        <path
                d="M413.29 379.19C425.83 376.99 435.64 378 441.14 382.16 446.38 385.56 447.14 393.51 442.35 405.77 437.63 418.02 428.74 432.5 418.27 445.69 408.1 458.28 396.12 467.96 384.42 470.47 372.72 469.99 363.37 461.94 357.82 450.27 352.35 437.77 350.84 423.54 354.67 411.19 358.54 398.83 366.98 390.48 377.52 386.34 388.03 381.25 400.75 378.77 413.29 379.19"
                stroke-dasharray="6 9" transform="rotate(88.88, 400, 400)" opacity="0.73"></path>
        <path
                d="M409.94 390.6C422.86 389.8 434.61 400.36 431.39 412.82 427.92 422.1 421.24 432.7 413.29 442.02 405.48 450.87 396.32 457.47 387.48 459.06 378.64 458.98 371.71 453.66 367.68 445.62 363.68 437 362.66 426.74 365.63 417.39 368.62 408.04 375.04 401.28 383.03 397.44 391.01 393 400.61 390.53 409.94 390.6"
                stroke-dasharray="2 4" transform="rotate(92.92, 400, 400)" opacity="0.24"></path>
        <path
                d="M406.28 402.01C418.61 399.73 424.99 406.18 420.43 418.68 415.93 431.17 402.81 445.21 390.92 447.65 379.02 447.18 372.54 434.54 376.59 421.99 380.69 409.43 393.94 401.58 406.28 402.01"
                stroke-dasharray="3 7" transform="rotate(96.96, 400, 400)" opacity="0.43"></path>
    </g>
</svg>